<?xml version="1.0" encoding="utf-8"?>
<!-- Generator: Adobe Illustrator 18.0.0, SVG Export Plug-In . SVG Version: 6.00 Build 0)  -->
<!DOCTYPE svg PUBLIC "-//W3C//DTD SVG 1.1//EN" "http://www.w3.org/Graphics/SVG/1.1/DTD/svg11.dtd">
<svg version="1.1" id="Layer_1" xmlns="http://www.w3.org/2000/svg" xmlns:xlink="http://www.w3.org/1999/xlink" x="0px" y="0px"
	 viewBox="0 0 270 270" enable-background="new 0 0 270 270" xml:space="preserve">
<rect fill="#FFFFFF" width="270" height="270"/>
<path fill="#CF1B41" d="M154.6,98.2c4-1.4,23.6-5.4,29.1-11c4-4.1,6.8-18.1,3.4-22.8c-3.9-5.3-26.1-4.2-26.1-4.2s-5.6-12.1-9.3-14.3
	c-4.2-2.6-16.1-2.1-16.1-2.1s1.1-17.5-4.2-18.8c-10.2-2.5-23.8,51.9-28,70.2l-5.1,15.6c-9.7,25.6-34.7,95.1-31.5,120.5
	c-20.1-16.7-20.4-52.8-25.7-41.7c-5.1,10.6-0.1,36.2,9.4,47.5c7.1,8.4,20.3,9.6,25.4,6.3c11,5,29.1,1.7,45.1-1.5H149v-3.7
	c0.1,0,0.3,0,0.4,0.1c14.9,3.2,13.1-7.1,13.1-7.1l-12.1-104.1l-2-17l-0.1-1C148.3,109.1,148.7,100.3,154.6,98.2z"/>
<path fill="#399FD3" d="M225.6,215.2c-1.5-5.5-3.9-7.2-7.4-9.7c-6.1-4.4-5.3-13.3,3.6-18.6c3.8-2.1,3.3-8.4-3.5-6.8
	c-9.2,2.2-14,19-10.4,25c1.5,2.5,2.1,3.5,7.5,6.7c8.6,5.1-1.8,20.4-7.4,16.8c-1.8-18.2-24.8-44.7-38.7-50.2c-0.5-0.5-0.9-1-1.2-1.5
	c-0.3-4-0.4-13,0.2-15.8c0.9-4.3-0.3-6.8-2.6-12.9c-0.4-1.1-2.3-13.4-6-13.8c-3.7-0.4-8.6,12.1-8.6,12.1s-10.6,0-11.9,4.7
	c-1.5,5.7-7.4,8.8-7.6,9.6c-0.9,3.2,0.7,11.9,5.8,13.2c3.1,0.8,6.3,10.1,7.4,13.5c1-0.3,2-0.6,3.1-1c-1.1,0.4-2.2,0.8-3.1,1
	c2.6,12.2,1.4,41.6,1.3,47.2h-1v7h1.4c1.7,1.7,4.4,1.8,7.6,1.2c3.6-0.7,30.7,6.8,47.7-0.3c1.6-1,2.8-2.1,3.8-3.4
	c1.9,0,3.6-0.4,3.6-0.4C221.4,235.3,227.7,223,225.6,215.2z"/>
<path fill="#FFFFFF" d="M163,214.6c-0.3-4.1-3.4-7.3-7.3-8c-0.5-0.1-1-0.1-1.5-0.1c-0.5,0-1,0-1.5,0.1c-1.2,0.2-2.3,0.6-3.2,1.2
	c-0.9,0.6-1.8,1.4-2.4,2.2c0,0,0,0-0.1,0.1c0,0.1-25.9,37.1-25.9,37.1c0.1,0,14.9,0,21,0c11.6,0,20.9-9.4,21-20.9c0,0,0,0,0-0.1
	v-4.7l7.1-3.5L163,214.6z"/>
</svg>
